<svg
  width="176"
  height="72"
  focusable="false"
  viewBox="0 0 176 72"
  xmlns="http://www.w3.org/2000/svg"
>
  <!-- O ring mark — remains visible in compact mode -->
  <path
    fill="currentColor"
    d="M35.671 35.516l.001.206c.004 9.6-8.028 17.638-17.633 17.638C8.3 53.36.4 45.463.4 35.722c0-8.933 7.228-16.845 16.153-17.563 4.786-.385 9.686 1.239 13.264 4.45 3.617 3.248 5.793 8.046 5.854 12.907zm-17.632 8.71c4.504 0 8.172-3.667 8.172-8.172 0-4.51-3.668-8.172-8.172-8.172a8.176 8.176 0 0 0-8.172 8.172c0 4.505 3.662 8.172 8.172 8.172z"
  />
  <!-- "lusegun" text — fades out in compact mode -->
  <g class="ola">
    <text
      x="43"
      y="51"
      font-family="'Helvetica Neue', Helvetica, Arial, sans-serif"
      font-size="32"
      font-weight="700"
      fill="currentColor"
      letter-spacing="-1"
    >lusegun</text>
  </g>
  <g class="lu"/>
</svg>
